<?xml version="1.0" encoding="UTF-8"?>
<svg viewBox="0 0 370 118.74457636167408" xmlns="http://www.w3.org/2000/svg">
    <defs></defs>
    <g transform="matrix(2.4314223947150992,0,0,2.4314223947150992,-73.89363806992492,-59.72181257018963)" fill="#5782bb">
        <path d="M71.3,30.5c0-0.4-0.2-0.7-0.5-0.9c-0.3-0.2-0.7-0.3-1-0.2C68.6,29.8,67.3,30,66,30c-6.5,0-13.1-4.1-14-4.9  c-0.2-0.2-0.4-0.4-0.7-0.5c-0.4-0.1-0.7,0-1,0.3c-5.6,4.7-11,5.7-14.6,5.7c-2.2,0-3.6-0.4-3.7-0.4c-0.4-0.1-0.7,0-1,0.2  c-0.3,0.2-0.5,0.6-0.5,0.9c-0.6,11.2,1.3,21.6,5.2,27.9c6.4,10.3,14.5,14,14.9,14.1c0.2,0.1,0.3,0.1,0.5,0.1c0.1,0,0.3,0,0.4-0.1  c3.9-1.4,9.8-5.6,14.3-13.5C73,47.3,71.4,31.2,71.3,30.5z M32.9,32.8c0.7,0.1,1.7,0.2,2.9,0.2c3.8,0,9.4-1,15.3-5.6  c2.5,1.8,8.7,5.1,14.9,5.1c1,0,2-0.1,3-0.3c0,0.5,0,1,0.1,1.7c-5.8,0.8-12.7-0.3-17.4-4c-0.3-0.2-0.6-0.2-0.9,0  c-4.7,4.3-11.7,5.9-18,4.5C32.9,33.8,32.9,33.3,32.9,32.8z M63.7,58.6c-5,8.6-10.6,11.5-12.6,12.3c-1.7-0.9-8.2-4.7-13.4-13  c-3.2-5.1-4.9-13.2-4.9-22.3c6.4,1.3,13.5-0.2,18.4-4.5c5,3.7,11.8,4.7,17.8,4C69.1,40.6,68.4,50.5,63.7,58.6z"></path>
    </g>
    <g transform="matrix(4.010704350576294,0,0,4.010704350576294,117.99460766320169,7.946219714090439)" fill="#fffeec">
        <path d="M3.0096 13.0168 c0 -2.4656 2.0074 -4.4728 4.4728 -4.4728 l0.86293 0 l0 0.43238 l-0.86293 0 c-2.2282 0 -4.0404 1.8123 -4.0404 4.0404 s1.8123 4.0404 4.0404 4.0404 l0.86293 0 l0 0.43238 l-0.86293 0 c-2.4656 0 -4.4728 -2.0074 -4.4728 -4.4728 z M2.3822 13.0168 c0 -2.8114 2.2888 -5.1004 5.1002 -5.1004 l0.86293 0 l0 0.43238 l-0.86293 0 c-2.574 0 -4.668 2.0938 -4.668 4.668 s2.0938 4.668 4.668 4.668 l0.86293 0 l0 0.43238 l-0.86293 0 c-2.8132 0 -5.1002 -2.2888 -5.1002 -5.1002 z M1.7548 13.0168 c0 -3.1574 2.5704 -5.7276 5.7276 -5.7276 l0.86293 0 l0 0.43238 l-0.86293 0 c-2.92 0 -5.2954 2.3754 -5.2954 5.2954 s2.3754 5.2954 5.2954 5.2954 l0.86293 0 l0 0.43238 l-0.86293 0 c-3.1592 0 -5.7276 -2.5704 -5.7276 -5.7278 z M1.1274 13.0168 c0 -3.505 2.8518 -6.3552 6.3552 -6.3552 l0.86293 0 l0 0.43238 l-0.86293 0 c-3.2658 0 -5.9228 2.6568 -5.9228 5.9228 s2.6568 5.9228 5.9228 5.9228 l0.86293 0 l0 0.43238 l-0.86293 0 c-3.5032 0 -6.3552 -2.85 -6.3552 -6.3552 z M7.4826 6.034000000000001 l0.86294 0.000039062 l0 0.43238 l-0.86293 0 c-3.6118 0 -6.5502 2.9384 -6.5502 6.5502 s2.9384 6.5502 6.5502 6.5502 l0.86293 0 l0 0.43238 l-0.86293 0 c-3.8492 0 -6.9826 -3.1334 -6.9826 -6.9826 s3.1316 -6.9826 6.9826 -6.9826 z M8.86 6.021000000000001 l0.50047 0 l4.4288 7.5952 l0 6.3827 l-0.43238 0 l0 -6.265 z M9.63278 6.021000000000001 l0.49861 0 l4.4288 7.5952 l0 6.3827 l-0.43238 0 l0 -6.265 z M10.9042 6.021000000000001 l4.4268 7.5934 l0.062558 6.3846 l-0.43238 0 l-0.060722 -6.265 l-4.4968 -7.713 l0.50047 0 z M11.677 6.021000000000001 l4.4268 7.5952 l0.033126 6.3828 l-0.43055 0 l-0.033126 -6.265 l-4.4968 -7.713 l0.50047 0 z M20.863999999999997 6.021000000000001 l0.50046 -0.000019531 l-4.4876 7.713 l0 6.265 l-0.43238 0 l0 -6.265 l-4.495 -7.713 l0.49861 0 l2.6624 4.5668 l2.666 -4.5668 l0.49861 0 l-2.907 4.9826 l-0.02207 -0.012871 l0.15088 0.2576 l3.0506 -5.2272 l0.50047 0 l-3.3008 5.656 l0.13432 0.23368 l3.4388 -5.8896 l0.50047 0 l-3.689 6.3184 l0.13615 0.23368 l3.8252 -6.552 l0.50047 0 l-4.0754 6.9808 l0.14352 0.24288 z M22.312379999999997 19.99939454 l-0.43238 0 l0 -14.002 l0.43238 0 l0 14.002 z M22.9803 19.99939454 l-0.43238 0 l0 -14.002 l0.43238 0 l0 14.002 z M23.6464 19.99939454 l-0.43238 0 l0 -14.002 l0.43238 0 l0 14.002 z M24.3142 19.99939454 l-0.43238 0 l0 -14.002 l0.43238 0 l0 14.002 z M26.2812 5.997999999999999 c2.4858 0 4.506 2.022 4.5096 4.5078 c0 2.4858 -2.022 4.5078 -4.5078 4.5078 l-1.3008 0 l0 4.9862 l-0.43238 0 l0 -14.002 l1.7314 0 z M24.9804 9.019 l0 2.966 l1.3008 0 c0.81694 0 1.483 -0.66422 1.483 -1.483 s-0.66606 -1.483 -1.483 -1.483 l-1.3008 0 z M24.9804 12.415199999999999 l0.000019531 0.21714 l1.3008 0 c1.1739 0 2.1306 -0.95492 2.1306 -2.1306 s-0.95492 -2.1306 -2.1306 -2.1306 l-1.3008 0 l0 0.21344 l1.3008 0 c1.0561 0 1.9154 0.85924 1.9154 1.9154 s-0.85924 1.9154 -1.9154 1.9154 l-1.3008 0 z M24.9804 13.0648 l0 0.21523 l1.3008 0 c1.5327 0 2.7782 -1.2456 2.7782 -2.7782 s-1.2456 -2.7782 -2.7782 -2.7782 l-1.3008 0 l0 0.21527 l1.3008 0 c1.4131 0 2.563 1.15 2.563 2.563 s-1.15 2.563 -2.563 2.563 l-1.3008 0 z M24.9804 13.712399999999999 l0 0.21527 l1.3008 0 c1.8896 0 3.4278 -1.5363 3.4278 -3.426 s-1.5382 -3.4278 -3.4278 -3.4278 l-1.3008 0 l0 0.21711 l1.3008 0 c1.77 0 3.2106 1.4407 3.2106 3.2106 s-1.4407 3.2106 -3.2106 3.2106 l-1.3008 0 z M26.2812 14.5808 c2.2466 0 4.0754 -1.8289 4.0754 -4.0754 s-1.8289 -4.0754 -4.0754 -4.0754 l-1.3008 0 l0 0.21344 l1.3008 0 c2.1288 0 3.8602 1.7314 3.8602 3.8584 s-1.7314 3.8584 -3.8602 3.8584 l-1.3008 0 l0 0.2208 l1.3008 0 z M32.23238 19.99939454 l-0.43238 0 l0 -13.978 l0.43238 0 l0 13.978 z M32.900299999999994 19.99939454 l-0.43238 0 l0 -13.978 l0.43238 0 l0 13.978 z M33.566399999999994 19.99939454 l-0.43238 0 l0 -13.978 l0.43238 0 l0 13.978 z M34.2324 19.99939454 l-0.43238 0 l0 -13.978 l0.43238 0 l0 13.978 z M40.29859999999999 12.1704 l0 -6.149 l0.43238 0 l0 13.98 l-0.43238 0 l0 -4.7305 l-5.3984 0 l0 4.7286 l-0.43238 0 l0 -13.978 l0.43238 0 l0 6.149 l5.3984 0 z M40.29859999999999 12.6028 l-5.3984 0 l0 0.23551 l5.3984 0 l0 -0.23551 z M34.9002 13.5044 l5.3984 0 l0 -0.23551 l-5.3984 0 l0 0.23551 z M40.29859999999999 13.9368 l-5.3984 0 l0 0.23551 l5.3984 0 l0 -0.23551 z M34.9002 14.8384 l5.3984 0 l0 -0.23551 l-5.3984 0 l0 0.23551 z M41.397 19.99939454 l-0.43238 0 l0 -13.978 l0.43238 0 l0 13.978 z M42.065 19.99939454 l-0.43238 0 l0 -13.978 l0.43238 0 l0 13.978 z M42.730999999999995 19.99939454 l-0.43238 0 l0 -13.978 l0.43238 0 l0 13.978 z M43.399 19.99939454 l-0.43238 0 l0 -13.978 l0.43238 0 l0 13.978 z M44.83238 20.0012305 l-0.43238 0 l0 -13.982 l0.43238 0 l0 13.982 z M45.4984 20.0012305 l-0.43238 0 l0 -13.982 l0.43238 0 l0 13.982 z M46.166399999999996 20.0012305 l-0.43238 0 l0 -13.982 l0.43238 0 l0 13.982 z M46.8324 20.0012305 l-0.43238 0 l0 -13.982 l0.43238 0 l0 13.982 z M52.5712 6.449999999999999 l-5.0708 0.000019531 l0 0.23551 l5.0708 0 l0 0.43238 l-5.0708 0 l0 0.23367 l5.0708 0 l0 0.43238 l-5.0708 0 l0 0.23551 l5.0708 0 l0 0.43238 l-5.0708 0 l0 0.23367 l5.0708 0 l0 0.43238 l-5.0708 0 l0 2.6863 l3.6891 0 l0 0.43238 l-3.6891 0 l0 0.23551 l3.6891 0 l0 0.43055 l-3.6891 0 l0 0.23551 l3.6891 0 l0 0.43238 l-3.6891 0 l0 0.23367 l3.6891 0 l0 0.43238 l-3.6891 0 l0 0.23551 l3.6891 0 l0 0.43238 l-3.6891 0 l0 1.9963 l5.0708 0 l0 0.43238 l-5.0708 0 l0 0.23367 l5.0708 0 l0 0.43238 l-5.0708 0 l0 0.23551 l5.0708 0 l0 0.43055 l-5.0708 0 l0 0.23551 l5.0708 0 l0 0.43238 l-5.0708 0 l0 0.23367 l5.0708 0 l0 0.43238 l-5.5032 0 l0 -13.98 l5.5032 0 l0 0.43055 z M56.8274 12.8292 l0.3919 -0.18031 l3.4076 7.3506 l-0.47654 0 z M57.4364 12.5588 l0.39192 -0.18031 l3.5326 7.621 l-0.47654 0 z M58.0198 12.2422 l0.39376 -0.18215 l3.6836 7.9392 l-0.47654 0 z M54.01238 19.99939454 l-0.43238 0 l0 -13.971 l0.43238 0 l0 13.971 z M54.678399999999996 19.99939454 l-0.43238 0 l0 -13.971 l0.43238 0 l0 13.971 z M55.346399999999996 19.99939454 l-0.43238 0 l0 -13.971 l0.43238 0 l0 13.971 z M56.0124 19.99939454 l-0.43238 0 l0 -13.971 l0.43238 0 l0 13.971 z M60.248 14.428 l2.5852 5.5732 l-0.47654 0 l-3.7498 -8.0884 l0.2208 -0.16191 c0.39558 -0.27784 0.63662 -0.73414 0.63662 -1.218 c0 -0.81876 -0.66606 -1.483 -1.483 -1.483 l-1.3008 0 l0 4.0184 l3.2126 6.931 l-0.47654 0 l-2.736 -5.9026 l0 5.9025 l-0.43238 0 l0 -13.971 l1.7314 0 c2.4858 0 4.5078 2.022 4.5078 4.5078 c0 1.6063 -0.85556 3.0818 -2.2392 3.8914 z M59.1458 12.0472 l0.091992 0.2024 c0.54278 -0.39926 0.87212 -1.0395 0.87212 -1.7166 c0 -1.1757 -0.95676 -2.1306 -2.1306 -2.1306 l-1.3008 0 l0 0.21527 l1.3008 0 c1.0561 0 1.9154 0.85924 1.9154 1.9154 c0 0.5943 -0.27966 1.1518 -0.74884 1.5143 z M59.4236 12.6488 l0.090136 0.19867 c0.77278 -0.51334 1.2438 -1.3836 1.2438 -2.3146 c0 -1.5327 -1.2456 -2.7782 -2.7782 -2.7782 l-1.3008 0 l0 0.21527 l1.3008 0 c1.4131 0 2.563 1.15 2.563 2.563 c0 0.8427 -0.42502 1.6412 -1.1187 2.116 z M59.6996 13.241399999999999 l0.092012 0.19691 c1.0028 -0.62558 1.6173 -1.7222 1.6173 -2.907 c0 -1.8878 -1.5382 -3.426 -3.4278 -3.426 l-1.3008 0 l0 0.21527 l1.3008 0 c1.77 0 3.2106 1.4407 3.2106 3.2106 c0 1.1003 -0.56854 2.1214 -1.4922 2.7102 z M59.9738 13.8338 l0.093848 0.20056 c1.2291 -0.73598 1.989 -2.0608 1.989 -3.4978 c0 -2.2466 -1.8289 -4.0754 -4.0754 -4.0754 l-1.3008 0 l0 0.21344 l1.3008 0 c2.127 0 3.8584 1.7314 3.8584 3.8584 c0 1.3523 -0.71204 2.6016 -1.8657 3.3008 z"></path>
    </g>
</svg> 